<svg width="933" height="234" viewBox="0 0 933 234" fill="none" xmlns="http://www.w3.org/2000/svg">
<path d="M54.7693 43.3959C62.2514 43.3959 68.5364 37.111 68.5364 29.6289C68.5364 22.1469 62.2514 15.8619 54.7693 15.8619C47.2871 15.8619 41.0021 22.1469 41.0021 29.6289C41.0021 37.111 47.2871 43.3959 54.7693 43.3959ZM47.2871 140.663C47.2871 142.758 49.0828 144.553 51.1778 144.553C53.2728 144.553 55.0686 142.758 55.0686 140.663C55.0686 138.568 53.2728 136.772 51.1778 136.772C49.0828 136.772 47.2871 138.568 47.2871 140.663ZM74.8214 60.7543C78.1136 60.7543 80.5078 58.0607 80.5078 55.0679C80.5078 51.7758 77.8143 49.3815 74.8214 49.3815C71.5293 49.3815 69.135 52.0751 69.135 55.0679C69.135 58.0607 71.5293 60.7543 74.8214 60.7543ZM29.6293 112.53C37.1114 112.53 43.3964 106.245 43.3964 98.7631C43.3964 91.281 37.1114 84.9961 29.6293 84.9961C22.1471 84.9961 15.8621 91.281 15.8621 98.7631C16.1614 106.245 22.1471 112.53 29.6293 112.53ZM9.87643 80.2076C13.1686 80.2076 15.5629 77.5141 15.5629 74.5212C15.5629 71.2291 12.8693 68.8349 9.87643 68.8349C6.58428 68.8349 4.19 71.5284 4.19 74.5212C4.19 77.8133 6.58428 80.2076 9.87643 80.2076ZM7.78143 92.7774C7.78143 90.6825 5.98571 88.8868 3.89071 88.8868C1.79571 88.8868 0 90.6825 0 92.7774C0 94.8724 1.79571 96.6681 3.89071 96.6681C5.98571 96.6681 7.78143 94.8724 7.78143 92.7774ZM26.0379 60.455C31.425 60.455 35.615 56.265 35.615 50.8779C35.615 45.4909 31.425 41.3009 26.0379 41.3009C20.6507 41.3009 16.4607 45.4909 16.4607 50.8779C16.4607 56.265 20.6507 60.455 26.0379 60.455ZM142.46 7.78133C144.555 7.78133 146.351 5.98564 146.351 3.89067C146.351 1.79569 144.555 0 142.46 0C140.365 0 138.569 1.79569 138.569 3.89067C138.569 5.98564 140.365 7.78133 142.46 7.78133ZM37.71 139.166C37.71 129.888 30.2279 122.406 20.95 122.406C11.6721 122.406 4.19 129.888 4.19 139.166C4.19 148.444 11.6721 155.926 20.95 155.926C30.2279 155.926 37.71 148.444 37.71 139.166ZM205.609 68.5356C213.091 68.5356 219.376 62.2507 219.376 54.7686C219.376 47.2866 213.091 41.0016 205.609 41.0016C198.127 41.0016 191.842 47.2866 191.842 54.7686C191.842 62.2507 197.828 68.5356 205.609 68.5356ZM174.783 163.109C174.783 168.496 178.973 172.686 184.36 172.686C189.747 172.686 193.937 168.496 193.937 163.109C193.937 157.722 189.747 153.532 184.36 153.532C178.973 153.532 174.783 157.722 174.783 163.109ZM184.36 35.6146C189.747 35.6146 193.937 31.4246 193.937 26.0375C193.937 20.6505 189.747 16.4605 184.36 16.4605C178.973 16.4605 174.783 20.6505 174.783 26.0375C174.783 31.4246 178.973 35.6146 184.36 35.6146ZM163.111 60.455C168.498 60.455 172.688 56.265 172.688 50.8779C172.688 45.4909 168.498 41.3009 163.111 41.3009C157.724 41.3009 153.534 45.4909 153.534 50.8779C153.534 56.265 157.724 60.455 163.111 60.455ZM197.529 94.2738C197.529 103.552 205.011 111.034 214.289 111.034C223.566 111.034 231.049 103.552 231.049 94.2738C231.049 84.9961 223.566 77.5141 214.289 77.5141C205.011 77.5141 197.529 84.9961 197.529 94.2738ZM187.951 92.7774C187.951 90.6825 186.156 88.8868 184.061 88.8868C181.966 88.8868 180.17 90.6825 180.17 92.7774C180.17 94.8724 181.966 96.6681 184.061 96.6681C186.156 96.6681 187.951 94.8724 187.951 92.7774ZM160.417 15.2634C163.709 15.2634 166.104 12.5698 166.104 9.57703C166.104 6.5842 163.41 3.89067 160.417 3.89067C157.125 3.89067 154.731 6.5842 154.731 9.57703C154.731 12.5698 157.424 15.2634 160.417 15.2634ZM178.374 80.2076C181.666 80.2076 184.061 77.5141 184.061 74.5212C184.061 71.2291 181.367 68.8349 178.374 68.8349C175.381 68.8349 172.688 71.5284 172.688 74.5212C172.688 77.8133 175.381 80.2076 178.374 80.2076ZM60.4557 70.3313C60.4557 64.9442 56.2657 60.7543 50.8786 60.7543C45.4914 60.7543 41.3014 64.9442 41.3014 70.3313C41.3014 75.7184 45.4914 79.9083 50.8786 79.9083C56.2657 79.9083 60.4557 75.7184 60.4557 70.3313ZM160.417 172.686C157.125 172.686 154.731 175.379 154.731 178.372C154.731 181.664 157.424 184.058 160.417 184.058C163.709 184.058 166.104 181.365 166.104 178.372C166.104 175.379 163.709 172.686 160.417 172.686ZM140.964 195.73C131.686 195.73 124.204 203.213 124.204 212.49C124.204 221.768 131.686 229.25 140.964 229.25C150.241 229.25 157.724 221.768 157.724 212.49C157.724 203.213 150.241 195.73 140.964 195.73ZM180.469 190.044C172.987 190.044 166.702 196.329 166.702 203.811C166.702 211.293 172.987 217.578 180.469 217.578C187.951 217.578 194.236 211.293 194.236 203.811C194.236 196.329 187.951 190.044 180.469 190.044ZM138.569 184.058C138.569 186.153 140.365 187.949 142.46 187.949C144.555 187.949 146.351 186.153 146.351 184.058C146.351 181.963 144.555 180.168 142.46 180.168C140.365 180.467 138.569 181.963 138.569 184.058ZM231.348 136.772C229.253 136.772 227.457 138.568 227.457 140.663C227.457 142.758 229.253 144.553 231.348 144.553C233.443 144.553 235.239 142.758 235.239 140.663C235.239 138.568 233.144 136.772 231.348 136.772ZM225.362 153.232C222.07 153.232 219.676 155.926 219.676 158.919C219.676 162.211 222.369 164.605 225.362 164.605C228.654 164.605 231.049 161.912 231.049 158.919C231.049 155.627 228.654 153.232 225.362 153.232ZM134.679 43.3959C142.161 43.3959 148.446 37.111 148.446 29.6289C148.446 22.1469 142.161 15.8619 134.679 15.8619C127.196 15.8619 120.911 22.1469 120.911 29.6289C120.911 37.111 127.196 43.3959 134.679 43.3959ZM205.609 120.91C198.127 120.91 191.842 127.195 191.842 134.677C191.842 142.159 198.127 148.444 205.609 148.444C213.091 148.444 219.376 142.159 219.376 134.677C219.077 127.195 213.091 120.91 205.609 120.91ZM29.6293 164.904C22.1471 164.904 15.8621 171.189 15.8621 178.671C15.8621 186.153 22.1471 192.438 29.6293 192.438C37.1114 192.438 43.3964 186.153 43.3964 178.671C43.3964 171.189 37.4107 164.904 29.6293 164.904ZM209.201 172.985C203.814 172.985 199.624 177.175 199.624 182.562C199.624 187.949 203.814 192.139 209.201 192.139C214.588 192.139 218.778 187.949 218.778 182.562C218.778 177.175 214.588 172.985 209.201 172.985ZM56.8643 153.232C53.5721 153.232 51.1778 155.926 51.1778 158.919C51.1778 162.211 53.8714 164.605 56.8643 164.605C59.8571 164.605 62.5507 161.912 62.5507 158.919C62.5507 155.627 59.8571 153.232 56.8643 153.232ZM72.1278 172.985C66.7407 172.985 62.5507 177.175 62.5507 182.562C62.5507 187.949 66.7407 192.139 72.1278 192.139C77.515 192.139 81.705 187.949 81.705 182.562C81.705 177.175 77.515 172.985 72.1278 172.985ZM74.8214 218.177C71.5293 218.177 69.135 220.87 69.135 223.863C69.135 226.856 71.8286 229.549 74.8214 229.549C78.1136 229.549 80.5078 226.856 80.5078 223.863C80.5078 220.87 77.8143 218.177 74.8214 218.177ZM50.8786 197.825C45.4914 197.825 41.3014 202.015 41.3014 207.402C41.3014 212.79 45.4914 216.979 50.8786 216.979C56.2657 216.979 60.4557 212.79 60.4557 207.402C60.4557 202.015 56.2657 197.825 50.8786 197.825ZM89.1871 49.3815C89.1871 51.4765 90.9828 53.2722 93.0778 53.2722C95.1728 53.2722 96.9685 51.4765 96.9685 49.3815C96.9685 47.2866 95.1728 45.4909 93.0778 45.4909C90.6835 45.4909 89.1871 47.2866 89.1871 49.3815ZM111.035 20.6505C111.035 11.3727 103.553 3.89067 94.275 3.89067C84.9971 3.89067 77.515 11.3727 77.515 20.6505C77.515 29.9282 84.9971 37.4103 94.275 37.4103C103.553 37.7095 111.035 30.2275 111.035 20.6505ZM92.7786 225.659C90.6836 225.659 88.8878 227.454 88.8878 229.549C88.8878 231.644 90.6836 233.44 92.7786 233.44C94.8736 233.44 96.6693 231.644 96.6693 229.549C96.6693 227.454 94.8736 225.659 92.7786 225.659ZM100.56 190.044C93.0778 190.044 86.7928 196.329 86.7928 203.811C86.7928 211.293 93.0778 217.578 100.56 217.578C108.042 217.578 114.327 211.293 114.327 203.811C114.327 196.329 108.042 190.044 100.56 190.044Z" fill="url(#paint0_linear_501_1160)"/>
<path d="M375.537 43.1067C383.763 46.2082 391.179 51.1975 397.787 58.0747C411.946 72.3684 419.026 90.6065 419.026 112.789C419.026 134.971 411.946 153.276 397.787 167.705C391.179 174.582 383.763 179.572 375.537 182.673C367.041 186.179 358.344 187.932 349.444 187.932H292.201C290.313 187.932 288.661 187.224 287.245 185.808C285.829 184.392 285.121 182.741 285.121 180.853V166.289C285.121 164.267 285.829 162.547 287.245 161.131C288.661 159.715 290.313 159.007 292.201 159.007H348.837C360.838 159.007 370.581 154.625 378.065 145.86C385.549 137.095 389.291 126.105 389.291 112.89C389.291 99.6749 385.549 88.6849 378.065 79.9198C370.581 71.1548 360.838 66.7723 348.837 66.7723H292.201C290.313 66.7723 288.661 66.0643 287.245 64.6485C285.829 63.2326 285.121 61.5133 285.121 59.4906V44.9271C285.121 43.0393 285.829 41.3874 287.245 39.9715C288.661 38.5556 290.313 37.8477 292.201 37.8477H349.444C358.344 37.8477 367.041 39.6007 375.537 43.1067V43.1067ZM502.16 39.4658C503.778 40.8143 504.587 42.6347 504.587 44.9271V60.0974C504.587 61.8504 504.081 63.3674 503.07 64.6485C502.058 65.9295 500.676 66.7723 498.923 67.1768C490.293 68.9298 482.944 73.0427 476.875 79.5153C468.65 88.1455 464.537 99.3715 464.537 113.193C464.537 127.015 468.65 138.309 476.875 147.074C482.944 153.411 490.293 157.457 498.923 159.21C500.676 159.614 502.058 160.457 503.07 161.738C504.081 163.019 504.587 164.536 504.587 166.289V181.459C504.587 183.617 503.778 185.437 502.16 186.921C500.676 188 499.125 188.539 497.507 188.539H496.294C480.651 185.977 467.234 178.897 456.041 167.301C442.017 152.872 435.005 134.904 435.005 113.396C435.005 91.8875 442.017 73.7843 456.041 59.086C466.964 47.7589 480.382 40.7469 496.294 38.0499C498.451 37.6454 500.407 38.1173 502.16 39.4658V39.4658ZM565.673 59.086C579.697 73.7843 586.71 91.8875 586.71 113.396C586.71 134.904 579.697 152.872 565.673 167.301C554.481 178.897 541.063 185.977 525.421 188.539H524.207C522.589 188.539 521.038 188 519.555 186.921C517.937 185.437 517.128 183.617 517.128 181.459V166.289C517.128 164.536 517.633 163.019 518.645 161.738C519.656 160.457 521.038 159.614 522.791 159.21C531.422 157.457 538.771 153.411 544.839 147.074C553.065 138.309 557.178 127.015 557.178 113.193C557.178 99.3715 553.065 88.1455 544.839 79.5153C538.771 73.0427 531.422 68.9298 522.791 67.1768C521.038 66.7723 519.656 65.9295 518.645 64.6485C517.633 63.3674 517.128 61.8504 517.128 60.0974V44.9271C517.128 42.6347 517.971 40.8143 519.656 39.4658C521.342 38.1173 523.263 37.6454 525.421 38.0499C541.333 40.7469 554.75 47.7589 565.673 59.086V59.086ZM749.944 37.8477C751.831 37.8477 753.483 38.5556 754.899 39.9715C756.315 41.3874 757.023 43.0393 757.023 44.9271V180.448C757.023 182.336 756.315 183.988 754.899 185.404C753.483 186.82 751.831 187.528 749.944 187.528H734.571C732.548 187.528 730.862 186.82 729.514 185.404C728.166 183.988 727.491 182.336 727.491 180.448V89.022L690.071 137.162C688.587 138.915 686.7 139.792 684.407 139.792C683.328 139.792 682.25 139.556 681.171 139.084C680.092 138.612 679.283 137.904 678.744 136.96L612.398 49.1748C611.589 48.2309 611.117 47.0509 610.982 45.6351C610.847 44.2192 611.117 42.9381 611.791 41.7919C612.466 40.6457 613.342 39.7018 614.421 38.9601C615.5 38.2185 616.713 37.8477 618.062 37.8477H635.862C638.154 37.8477 640.042 38.7916 641.525 40.6794L684.407 97.3151L726.278 40.6794C727.761 38.7916 729.716 37.8477 732.144 37.8477H749.944V37.8477ZM633.435 135.949C635.322 135.949 636.974 136.623 638.39 137.971C639.806 139.32 640.514 141.005 640.514 143.028V180.448C640.514 182.336 639.806 183.988 638.39 185.404C636.974 186.82 635.322 187.528 633.435 187.528H618.062C616.174 187.528 614.522 186.82 613.106 185.404C611.69 183.988 610.982 182.336 610.982 180.448V143.028C610.982 141.005 611.69 139.32 613.106 137.971C614.522 136.623 616.174 135.949 618.062 135.949H633.435ZM848.45 39.4658C850.068 40.8143 850.878 42.6347 850.878 44.9271V60.0974C850.878 61.8504 850.372 63.3674 849.36 64.6485C848.349 65.9295 846.967 66.7723 845.214 67.1768C836.584 68.9298 829.234 73.0427 823.166 79.5153C814.94 88.1455 810.828 99.3715 810.828 113.193C810.828 127.015 814.94 138.309 823.166 147.074C829.234 153.411 836.584 157.457 845.214 159.21C846.967 159.614 848.349 160.457 849.36 161.738C850.372 163.019 850.878 164.536 850.878 166.289V181.459C850.878 183.617 850.068 185.437 848.45 186.921C846.967 188 845.416 188.539 843.798 188.539H842.584C826.942 185.977 813.525 178.897 802.332 167.301C788.308 152.872 781.296 134.904 781.296 113.396C781.296 91.8875 788.308 73.7843 802.332 59.086C813.255 47.7589 826.672 40.7469 842.584 38.0499C844.742 37.6454 846.697 38.1173 848.45 39.4658V39.4658ZM911.964 59.086C925.988 73.7843 933 91.8875 933 113.396C933 134.904 925.988 152.872 911.964 167.301C900.771 178.897 887.354 185.977 871.712 188.539H870.498C868.88 188.539 867.329 188 865.846 186.921C864.228 185.437 863.418 183.617 863.418 181.459V166.289C863.418 164.536 863.924 163.019 864.935 161.738C865.947 160.457 867.329 159.614 869.082 159.21C877.712 157.457 885.062 153.411 891.13 147.074C899.356 138.309 903.468 127.015 903.468 113.193C903.468 99.3715 899.356 88.1455 891.13 79.5153C885.062 73.0427 877.712 68.9298 869.082 67.1768C867.329 66.7723 865.947 65.9295 864.935 64.6485C863.924 63.3674 863.418 61.8504 863.418 60.0974V44.9271C863.418 42.6347 864.261 40.8143 865.947 39.4658C867.632 38.1173 869.554 37.6454 871.712 38.0499C887.624 40.7469 901.041 47.7589 911.964 59.086V59.086Z" fill="#1E2022"/>
<defs>
<linearGradient id="paint0_linear_501_1160" x1="0" y1="0" x2="235.239" y2="0" gradientUnits="userSpaceOnUse">
<stop stop-color="#EE2A7B"/>
<stop offset="1" stop-color="#FF7DB8"/>
</linearGradient>
</defs>
</svg>
